<?xml version="1.0" encoding="iso-8859-1"?>
<!-- Generator: Adobe Illustrator 18.0.0, SVG Export Plug-In . SVG Version: 6.00 Build 0)  -->
<!DOCTYPE svg PUBLIC "-//W3C//DTD SVG 1.1//EN" "http://www.w3.org/Graphics/SVG/1.1/DTD/svg11.dtd">
<svg version="1.1" id="Capa_1" xmlns="http://www.w3.org/2000/svg" xmlns:xlink="http://www.w3.org/1999/xlink" x="0px" y="0px"
	 viewBox="0 0 390 390" style="enable-background:new 0 0 390 390;" xml:space="preserve">
<path d="M390,61.175c0-28.845-23.467-52.313-52.313-52.313H176.675c-28.847,0-52.314,23.468-52.314,52.313v176.184l-3.655-1.622
	c-11.416-5.068-23.753-7.638-36.669-7.638C37.699,228.099,0,262.426,0,304.618c0,42.193,37.699,76.52,84.037,76.52
	c22.079,0,42.892-7.74,58.605-21.795c15.873-14.195,24.799-33.215,25.135-53.556l0.003-0.81l0.291-243.805
	c0-4.742,3.86-8.602,8.605-8.602h161.012c4.744,0,8.604,3.86,8.604,8.604v142.532l-3.655-1.624
	c-11.42-5.072-23.762-7.644-36.682-7.644c-46.338,0-84.037,34.327-84.037,76.52c0,42.192,37.699,76.519,84.037,76.519
	c46.339,0,84.038-34.327,84.038-76.519L390,61.175z M84.037,338.407c-22.776,0-41.306-15.158-41.306-33.789
	c0-18.631,18.53-33.789,41.306-33.789c22.777,0,41.308,15.158,41.308,33.789C125.344,323.25,106.814,338.407,84.037,338.407z
	 M305.954,304.748c-22.777,0-41.307-15.157-41.307-33.788c0-18.632,18.53-33.79,41.307-33.79c22.777,0,41.308,15.158,41.308,33.79
	C347.262,289.591,328.731,304.748,305.954,304.748z"/>
<g>
</g>
<g>
</g>
<g>
</g>
<g>
</g>
<g>
</g>
<g>
</g>
<g>
</g>
<g>
</g>
<g>
</g>
<g>
</g>
<g>
</g>
<g>
</g>
<g>
</g>
<g>
</g>
<g>
</g>
</svg>
